<svg xmlns="http://www.w3.org/2000/svg" viewBox="0 0 1024 1024" width="1024" height="1024">
  <defs>
    <linearGradient id="bg" x1="0" y1="0" x2="1" y2="1">
      <stop offset="0" stop-color="#1e1e22"/>
      <stop offset="1" stop-color="#0d0d10"/>
    </linearGradient>
    <linearGradient id="accent" x1="0" y1="0" x2="1" y2="0">
      <stop offset="0" stop-color="#ff4d4d"/>
      <stop offset="0.5" stop-color="#ed1c24"/>
      <stop offset="1" stop-color="#b81219"/>
    </linearGradient>
    <filter id="glow" x="-20%" y="-20%" width="140%" height="140%">
      <feGaussianBlur stdDeviation="8" result="blur"/>
      <feMerge>
        <feMergeNode in="blur"/>
        <feMergeNode in="SourceGraphic"/>
      </feMerge>
    </filter>
  </defs>

  <!-- Background: rounded square -->
  <rect x="0" y="0" width="1024" height="1024" rx="220" ry="220" fill="url(#bg)"/>

  <!-- Subtle inner highlight border -->
  <rect x="16" y="16" width="992" height="992" rx="204" ry="204"
        fill="none" stroke="#2a2a30" stroke-width="2"/>

  <!-- GPU chip body (rounded square) -->
  <rect x="232" y="232" width="560" height="560" rx="72" ry="72"
        fill="#252530" stroke="#3a3a45" stroke-width="6"/>

  <!-- Chip pins: top -->
  <g fill="#3a3a45">
    <rect x="316" y="200" width="40" height="36" rx="4"/>
    <rect x="396" y="200" width="40" height="36" rx="4"/>
    <rect x="476" y="200" width="40" height="36" rx="4"/>
    <rect x="556" y="200" width="40" height="36" rx="4"/>
    <rect x="636" y="200" width="40" height="36" rx="4"/>
  </g>
  <!-- Chip pins: bottom -->
  <g fill="#3a3a45">
    <rect x="316" y="788" width="40" height="36" rx="4"/>
    <rect x="396" y="788" width="40" height="36" rx="4"/>
    <rect x="476" y="788" width="40" height="36" rx="4"/>
    <rect x="556" y="788" width="40" height="36" rx="4"/>
    <rect x="636" y="788" width="40" height="36" rx="4"/>
  </g>
  <!-- Chip pins: left -->
  <g fill="#3a3a45">
    <rect x="200" y="316" width="36" height="40" rx="4"/>
    <rect x="200" y="396" width="36" height="40" rx="4"/>
    <rect x="200" y="476" width="36" height="40" rx="4"/>
    <rect x="200" y="556" width="36" height="40" rx="4"/>
    <rect x="200" y="636" width="36" height="40" rx="4"/>
  </g>
  <!-- Chip pins: right -->
  <g fill="#3a3a45">
    <rect x="788" y="316" width="36" height="40" rx="4"/>
    <rect x="788" y="396" width="36" height="40" rx="4"/>
    <rect x="788" y="476" width="36" height="40" rx="4"/>
    <rect x="788" y="556" width="36" height="40" rx="4"/>
    <rect x="788" y="636" width="36" height="40" rx="4"/>
  </g>

  <!-- Inner chip die -->
  <rect x="320" y="320" width="384" height="384" rx="32" ry="32"
        fill="#15151a" stroke="#2a2a30" stroke-width="4"/>

  <!-- Pulse / EKG waveform across the die -->
  <polyline
    points="320,512 400,512 430,512 460,412 490,612 520,472 550,552 580,512 640,512 704,512"
    fill="none"
    stroke="url(#accent)"
    stroke-width="28"
    stroke-linecap="round"
    stroke-linejoin="round"
    filter="url(#glow)"/>

  <!-- Small corner accent dot (like power LED) -->
  <circle cx="672" cy="352" r="12" fill="#ed1c24" filter="url(#glow)"/>
</svg>
